# Alias OBJ Model File
# Exported from SketchUp, (c) 2000-2012 Trimble Navigation Limited
# File units = meters

mtllib box.mtl

g Mesh1 Group1 Model

usemtl FrontColor
v 0 0 -1.68
vt -75.5906 66.1417
vn 0 -1 -0
v 0 0 -0
vt -75.5906 0
v -1.92 0 -0
vt 0 0
v -1.92 0 -1.68
vt 0 66.1417
f 1/1/1 2/2/1 3/3/1 4/4/1 

vn 1 0 -0
vt 66.1417 0
v 0 1.49 -1.68
vt 66.1417 58.6614
v 0 1.49 -0
vt 0 58.6614
f 2/3/2 1/5/2 5/6/2 6/7/2 

vn 0 0 -1
v -1.92 1.49 -1.68
vt -75.5906 58.6614
f 1/2/3 4/3/3 7/7/3 5/8/3 

vt -66.1417 0
vn -1 0 -0
v -1.92 1.49 -0
vt -66.1417 58.6614
f 4/9/4 3/3/4 8/7/4 7/10/4 

vn 0 0 1
vt 75.5906 0
vt 75.5906 58.6614
f 3/3/5 2/11/5 6/12/5 8/7/5 

vn 0 1 -0
vt 75.5906 66.1417
f 6/11/6 5/13/6 7/4/6 8/3/6 

